<?xml version="1.0" standalone="no"?>
<!DOCTYPE svg PUBLIC "-//W3C//DTD SVG 20010904//EN"
 "http://www.w3.org/TR/2001/REC-SVG-20010904/DTD/svg10.dtd">
<svg version="1.0" xmlns="http://www.w3.org/2000/svg"
 width="512.000000pt" height="512.000000pt" viewBox="0 0 512.000000 512.000000"
 preserveAspectRatio="xMidYMid meet">
<metadata>
Created by potrace 1.16, written by Peter Selinger 2001-2019
</metadata>
<g transform="translate(0.000000,512.000000) scale(0.100000,-0.100000)"
fill="#000000" stroke="none">
<path d="M2484 5020 c-124 -19 -228 -71 -315 -160 -79 -80 -123 -163 -146
-277 -32 -152 7 -317 105 -446 42 -56 137 -131 200 -158 l42 -18 0 -203 0
-203 190 0 190 0 0 203 0 203 43 18 c62 27 157 102 199 158 98 129 137 294
105 446 -23 114 -67 197 -146 277 -121 123 -303 186 -467 160z"/>
<path d="M406 3544 c-179 -43 -334 -195 -390 -383 -21 -70 -21 -218 0 -296 34
-132 142 -270 259 -332 93 -49 167 -66 275 -66 150 1 277 52 379 155 l52 52
191 -62 c105 -35 193 -61 195 -59 2 3 13 42 24 88 11 46 36 123 55 172 20 49
34 90 32 92 -1 2 -90 31 -195 65 l-193 62 0 37 c0 53 -39 166 -80 235 -70 116
-213 217 -348 245 -71 15 -184 13 -256 -5z"/>
<path d="M4443 3546 c-131 -32 -265 -129 -333 -242 -41 -69 -80 -182 -80 -235
l0 -37 -192 -62 c-106 -34 -195 -63 -196 -65 -2 -2 12 -43 32 -92 19 -49 44
-126 55 -172 11 -46 22 -85 24 -88 2 -2 90 24 195 59 l191 62 52 -52 c162
-162 426 -204 634 -100 113 57 219 175 266 297 31 79 38 254 14 336 -42 145
-146 277 -271 343 -112 58 -268 77 -391 48z"/>
<path d="M2400 3196 c-328 -70 -570 -294 -662 -613 -19 -65 -23 -102 -23 -223
0 -156 9 -208 56 -323 83 -204 257 -380 460 -465 202 -83 456 -83 658 0 151
63 319 206 399 341 88 146 117 259 117 447 0 121 -4 158 -23 223 -38 134 -110
263 -201 360 -98 105 -266 204 -411 242 -88 23 -286 28 -370 11z"/>
<path fill="#66CCFF" d="M1584 1335 c-88 -122 -123 -164 -134 -159 -37 17 -206 16 -270 -1
-195 -50 -358 -216 -400 -406 -20 -90 -9 -250 23 -327 102 -246 346 -384 604
-338 121 21 204 65 293 155 114 115 160 224 160 381 0 99 -18 176 -59 258
l-29 57 120 164 c91 125 117 166 106 173 -7 5 -26 16 -43 25 -38 20 -207 146
-225 167 -7 9 -16 16 -19 16 -4 0 -61 -74 -127 -165z"/>
<path d="M3390 1484 c-18 -21 -187 -147 -225 -167 -16 -9 -36 -20 -43 -25 -11
-7 15 -48 106 -173 l120 -164 -29 -57 c-41 -82 -59 -159 -59 -258 0 -157 46
-266 160 -381 54 -55 94 -85 143 -108 243 -116 533 -45 684 166 70 99 95 170
101 292 8 181 -34 297 -153 416 -120 121 -246 170 -415 162 -52 -2 -102 -7
-110 -11 -11 -5 -46 37 -134 159 -66 91 -123 165 -127 165 -3 0 -12 -7 -19
-16z"/>
</g>
</svg>
